<svg width="24" height="24" viewBox="0 0 24 24" fill="none" xmlns="http://www.w3.org/2000/svg">
<path fill-rule="evenodd" clip-rule="evenodd" d="M19 9.72635C20.6569 9.72635 22 11.0169 22 12.6091C22 13.4628 21.6138 14.2299 21 14.7577V19.5189C21 19.8761 20.6088 20.1084 20.2764 19.9487L19 19.3354L17.7236 19.9487C17.3912 20.1084 17 19.8761 17 19.5189V14.7577C16.3863 14.2299 16 13.4628 16 12.6091C16 11.0169 17.3431 9.72635 19 9.72635ZM20 3C21.1046 3 22 3.86042 22 4.92181V8.76508C21.1643 8.16193 20.1256 7.80453 19 7.80453C16.2386 7.80453 14 9.95562 14 12.6091C14 13.6905 14.3733 14.6896 15 15.4919V18.3745H4C2.89543 18.3745 2 17.5141 2 16.4527V4.92181C2 3.86042 2.89543 3 4 3H20ZM8 11.6482H6C5.44772 11.6482 5 12.0784 5 12.6091C5 13.1398 5.44772 13.57 6 13.57H8C8.55228 13.57 9 13.1398 9 12.6091C9 12.0784 8.55228 11.6482 8 11.6482ZM12 7.80453H6C5.44772 7.80453 5 8.23475 5 8.76544C5 9.25824 5.38604 9.66438 5.88338 9.71988L6 9.72635H12C12.5523 9.72635 13 9.29615 13 8.76544C13 8.27266 12.614 7.86651 12.1166 7.811L12 7.80453Z" fill="#F6F6F6"/>
</svg>
