<svg width="24" height="24" viewBox="0 0 24 24" fill="none" xmlns="http://www.w3.org/2000/svg">
<path fill-rule="evenodd" clip-rule="evenodd" d="M6.85746 3C5.83466 3 4.85372 3.40621 4.13035 4.1293C3.40698 4.85239 3.00039 5.83317 3 6.85598V17.1425C3 18.1656 3.40641 19.1468 4.12982 19.8702C4.85324 20.5936 5.8344 21 6.85746 21H17.144C18.1668 20.9996 19.1476 20.593 19.8707 19.8697C20.5938 19.1463 21 18.1653 21 17.1425V6.85598C20.9996 5.83343 20.5932 4.85287 19.8702 4.12982C19.1471 3.40677 18.1666 3.00039 17.144 3H6.85746ZM18.2536 6.8619C18.2536 7.15657 18.1365 7.43916 17.9281 7.64751C17.7198 7.85587 17.4372 7.97292 17.1425 7.97292C16.8479 7.97292 16.5653 7.85587 16.3569 7.64751C16.1486 7.43916 16.0315 7.15657 16.0315 6.8619C16.0315 6.56724 16.1486 6.28465 16.3569 6.07629C16.5653 5.86794 16.8479 5.75089 17.1425 5.75089C17.4372 5.75089 17.7198 5.86794 17.9281 6.07629C18.1365 6.28465 18.2536 6.56724 18.2536 6.8619ZM12.0022 8.91803C11.185 8.91803 10.4013 9.24266 9.82347 9.8205C9.24562 10.3983 8.92099 11.1821 8.92099 11.9993C8.92099 12.8165 9.24562 13.6002 9.82347 14.178C10.4013 14.7559 11.185 15.0805 12.0022 15.0805C12.8194 15.0805 13.6031 14.7559 14.181 14.178C14.7588 13.6002 15.0834 12.8165 15.0834 11.9993C15.0834 11.1821 14.7588 10.3983 14.181 9.8205C13.6031 9.24266 12.8194 8.91803 12.0022 8.91803ZM7.43815 11.9993C7.43815 10.7892 7.91885 9.62867 8.7745 8.77302C9.63016 7.91737 10.7907 7.43667 12.0007 7.43667C13.2108 7.43667 14.3713 7.91737 15.227 8.77302C16.0826 9.62867 16.5633 10.7892 16.5633 11.9993C16.5633 13.2093 16.0826 14.3698 15.227 15.2255C14.3713 16.0811 13.2108 16.5618 12.0007 16.5618C10.7907 16.5618 9.63016 16.0811 8.7745 15.2255C7.91885 14.3698 7.43815 13.2093 7.43815 11.9993Z" fill="#F6F6F6"/>
</svg>
