<svg width="32" height="32" viewBox="0 0 32 32" fill="none" xmlns="http://www.w3.org/2000/svg">
  <path
    fill-rule="evenodd"
    clip-rule="evenodd"
    d="M9.14328 4C7.77954 4 6.47163 4.54161 5.50713 5.50573C4.54263 6.46986 4.00052 7.77757 4 9.14131V22.8567C4 24.2208 4.54188 25.529 5.50643 26.4936C6.47098 27.4581 7.7792 28 9.14328 28H22.8587C24.2224 27.9995 25.5301 27.4574 26.4943 26.4929C27.4584 25.5284 28 24.2205 28 22.8567V9.14131C27.9995 7.77791 27.4576 6.4705 26.4936 5.50643C25.5295 4.54236 24.2221 4.00052 22.8587 4H9.14328ZM24.3381 9.14921C24.3381 9.54209 24.182 9.91888 23.9042 10.1967C23.6264 10.4745 23.2496 10.6306 22.8567 10.6306C22.4638 10.6306 22.087 10.4745 21.8092 10.1967C21.5314 9.91888 21.3754 9.54209 21.3754 9.14921C21.3754 8.75633 21.5314 8.37954 21.8092 8.10173C22.087 7.82392 22.4638 7.66785 22.8567 7.66785C23.2496 7.66785 23.6264 7.82392 23.9042 8.10173C24.182 8.37954 24.3381 8.75633 24.3381 9.14921ZM16.003 11.8907C14.9134 11.8907 13.8684 12.3235 13.098 13.094C12.3275 13.8645 11.8947 14.9094 11.8947 15.999C11.8947 17.0886 12.3275 18.1336 13.098 18.904C13.8684 19.6745 14.9134 20.1073 16.003 20.1073C17.0926 20.1073 18.1375 19.6745 18.908 18.904C19.6784 18.1336 20.1113 17.0886 20.1113 15.999C20.1113 14.9094 19.6784 13.8645 18.908 13.094C18.1375 12.3235 17.0926 11.8907 16.003 11.8907ZM9.91754 15.999C9.91754 14.3856 10.5585 12.8382 11.6993 11.6974C12.8402 10.5565 14.3876 9.91556 16.001 9.91556C17.6144 9.91556 19.1618 10.5565 20.3026 11.6974C21.4435 12.8382 22.0844 14.3856 22.0844 15.999C22.0844 17.6124 21.4435 19.1598 20.3026 20.3007C19.1618 21.4415 17.6144 22.0825 16.001 22.0825C14.3876 22.0825 12.8402 21.4415 11.6993 20.3007C10.5585 19.1598 9.91754 17.6124 9.91754 15.999Z"
    fill="#F7F7F7"
  />
</svg>
