<svg width="48" height="48" viewBox="0 0 48 48" fill="none" xmlns="http://www.w3.org/2000/svg">
<path d="M35.5914 4.87836C36.1538 5.44094 36.4697 6.20387 36.4697 6.99936C36.4697 7.79485 36.1538 8.55778 35.5914 9.12036L20.7414 23.9704L35.5914 38.8204C36.1378 39.3862 36.4402 40.144 36.4334 40.9306C36.4266 41.7172 36.111 42.4696 35.5548 43.0258C34.9986 43.582 34.2462 43.8975 33.4596 43.9044C32.673 43.9112 31.9152 43.6088 31.3494 43.0624L14.3784 26.0914C13.816 25.5288 13.5 24.7659 13.5 23.9704C13.5 23.1749 13.816 22.4119 14.3784 21.8494L31.3494 4.87836C31.912 4.31595 32.6749 4 33.4704 4C34.2659 4 35.0288 4.31595 35.5914 4.87836Z" fill="#F7F7F7"/>
</svg>
