<svg width="24" height="24" viewBox="0 0 24 24" fill="none" xmlns="http://www.w3.org/2000/svg">
<path d="M11.5 2V8.5C11.5 9.32843 12.2136 10 13.0938 10H20V20C20 21.1046 19.0486 22 17.875 22H10.2978C10.388 21.7492 10.4375 21.4778 10.4375 21.191V17.0001C11.1034 16.1652 11.5 15.1254 11.5 14C11.5 11.2386 9.12151 9 6.1875 9C4.99154 9 3.88789 9.37194 3 9.99963V4C3 2.89543 3.95139 2 5.125 2H11.5ZM6.1875 11C7.9479 11 9.375 12.3431 9.375 14C9.375 14.8885 8.96461 15.6868 8.3125 16.2361V21.191C8.3125 21.5627 7.89689 21.8044 7.54366 21.6382L6.1875 21L4.83134 21.6382C4.47811 21.8044 4.0625 21.5627 4.0625 21.191V16.2361C3.41039 15.6868 3 14.8885 3 14C3 12.3431 4.4271 11 6.1875 11ZM13.625 2.04336C14.0244 2.12295 14.3944 2.30991 14.6875 2.58579L19.3776 7C19.6707 7.27588 19.8694 7.62406 19.9539 8H13.625V2.04336Z" fill="#F6F6F6"/>
</svg>
