<svg width="24" height="24" viewBox="0 0 24 24" fill="none" xmlns="http://www.w3.org/2000/svg">
<path d="M6.43918 21.5131C6.15797 21.2318 6 20.8503 6 20.4526C6 20.0548 6.15797 19.6734 6.43918 19.3921L13.8642 11.9671L6.43918 4.54206C6.16594 4.25916 6.01475 3.88025 6.01817 3.48696C6.02159 3.09366 6.17934 2.71744 6.45745 2.43933C6.73556 2.16122 7.11178 2.00347 7.50508 2.00005C7.89837 1.99663 8.27728 2.14782 8.56018 2.42106L17.0457 10.9066C17.3269 11.1879 17.4849 11.5693 17.4849 11.9671C17.4849 12.3648 17.3269 12.7463 17.0457 13.0276L8.56018 21.5131C8.27889 21.7943 7.89743 21.9522 7.49968 21.9522C7.10193 21.9522 6.72047 21.7943 6.43918 21.5131Z" fill="#F6F6F6"/>
</svg>
