<svg width="48" height="48" viewBox="0 0 48 48" fill="none" xmlns="http://www.w3.org/2000/svg">
<path d="M13.8784 43.4698C13.3159 42.9072 13 42.1443 13 41.3488C13 40.5533 13.3159 39.7904 13.8784 39.2278L28.7284 24.3778L13.8784 9.52779C13.3319 8.96198 13.0295 8.20417 13.0363 7.41758C13.0432 6.63099 13.3587 5.87855 13.9149 5.32233C14.4711 4.7661 15.2236 4.4506 16.0102 4.44376C16.7967 4.43693 17.5546 4.73931 18.1204 5.28579L35.0914 22.2568C35.6538 22.8194 35.9697 23.5823 35.9697 24.3778C35.9697 25.1733 35.6538 25.9362 35.0914 26.4988L18.1204 43.4698C17.5578 44.0322 16.7949 44.3481 15.9994 44.3481C15.2039 44.3481 14.4409 44.0322 13.8784 43.4698Z" fill="#F7F7F7"/>
</svg>
