<svg width="32" height="32" viewBox="0 0 32 32" fill="none" xmlns="http://www.w3.org/2000/svg">
<path d="M16 3C8.82111 3 3 8.82111 3 16C3 23.1789 8.82111 29 16 29C23.1789 29 29 23.1789 29 16C29 8.82111 23.1789 3 16 3ZM26.8333 12.36C26.4376 13.6542 25.5218 14.7289 24.3056 15.3211C23.6556 12.88 21.9107 10.8809 19.5822 9.90444C19.77 9.26311 20.1744 8.70556 20.7233 8.33C20.1022 7.92556 19.2789 7.72333 18.7878 8.43111C18.0222 9.42778 18.7878 10.7567 19.0911 11.32V11.5222C18.2894 11.0354 17.6611 10.3089 17.3 9.44222C15.9047 9.39889 14.5238 9.74267 13.3133 10.4389C13.1877 9.62278 13.2671 8.78933 13.5444 8.01222C14.6032 8.11333 15.6432 7.68 16.3178 6.85667C16.9822 6.10556 16.13 5.15222 15.4656 4.57444H15.9856C17.95 4.56 19.8884 5.05833 21.6044 6.01889C23.5689 7.47056 24.7736 9.73111 24.8833 12.1722C25.23 12.1722 25.8944 11.3778 26.1978 10.8433C26.4462 11.3344 26.66 11.84 26.8333 12.36ZM16 27.3244C13.0389 24.32 16.3611 21.9078 14.5556 19.7556C13.2267 18.5278 11.2478 19.38 10.0633 17.9789C9.656 15.8512 10.449 13.6716 12.1289 12.3022C12.88 11.6667 17.9067 10.8578 19.9578 12.62C21.1567 13.6528 22.0017 15.038 22.37 16.5778C23.0344 16.6283 23.696 16.4824 24.2767 16.1589C24.8689 20.4633 19.7267 25.8944 16 27.3244ZM10.4389 6.01889C11.5742 5.58556 12.8598 5.97844 13.5589 6.97222C12.9522 7.52111 12.2011 7.88222 11.3922 8.01222C11.4211 7.58756 11.515 7.16867 11.6667 6.77L10.4389 6.01889Z" fill="#F7F7F7"/>
</svg>
