<svg width="24" height="24" viewBox="0 0 24 24" fill="none" xmlns="http://www.w3.org/2000/svg">
<path d="M12 2C6.47778 2 2 6.47778 2 12C2 17.5222 6.47778 22 12 22C17.5222 22 22 17.5222 22 12C22 6.47778 17.5222 2 12 2ZM20.3333 9.2C20.0289 10.1956 19.3244 11.0222 18.3889 11.4778C17.8889 9.6 16.5467 8.06222 14.7556 7.31111C14.9 6.81778 15.2111 6.38889 15.6333 6.1C15.1556 5.78889 14.5222 5.63333 14.1444 6.17778C13.5556 6.94444 14.1444 7.96667 14.3778 8.4V8.55556C13.7611 8.18111 13.2778 7.62222 13 6.95556C11.9267 6.92222 10.8644 7.18667 9.93333 7.72222C9.83667 7.09444 9.89778 6.45333 10.1111 5.85556C10.9256 5.93333 11.7256 5.6 12.2444 4.96667C12.7556 4.38889 12.1 3.65556 11.5889 3.21111H11.9889C13.5 3.2 14.9911 3.58333 16.3111 4.32222C17.8222 5.43889 18.7489 7.17778 18.8333 9.05556C19.1 9.05556 19.6111 8.44444 19.8444 8.03333C20.0356 8.41111 20.2 8.8 20.3333 9.2ZM12 20.7111C9.72222 18.4 12.2778 16.5444 10.8889 14.8889C9.86667 13.9444 8.34444 14.6 7.43333 13.5222C7.12 11.8856 7.73 10.2089 9.02222 9.15556C9.6 8.66667 13.4667 8.04444 15.0444 9.4C15.9667 10.1944 16.6167 11.26 16.9 12.4444C17.4111 12.4833 17.92 12.3711 18.3667 12.1222C18.8222 15.4333 14.8667 19.6111 12 20.7111ZM7.72222 4.32222C8.59556 3.98889 9.58444 4.29111 10.1222 5.05556C9.65556 5.47778 9.07778 5.75556 8.45556 5.85556C8.47778 5.52889 8.55 5.20667 8.66667 4.9L7.72222 4.32222Z" fill="#F6F6F6"/>
</svg>
